<?xml version="1.0" encoding="utf-8"?>
<!-- Generator: Adobe Illustrator 19.0.0, SVG Export Plug-In . SVG Version: 6.00 Build 0)  -->
<svg version="1.1" id="Calque_1" xmlns="http://www.w3.org/2000/svg" xmlns:xlink="http://www.w3.org/1999/xlink" x="0px" y="0px"
	 viewBox="0 0 438 193.5" style="enable-background:new 0 0 438 193.5;" xml:space="preserve">
<style type="text/css">
	.st0{fill:url(#XMLID_144_);}
	.st1{fill:#FFFFFF;stroke:#000000;stroke-width:2.0116;stroke-miterlimit:10;}
	.st2{fill:#FFFFFF;stroke:#000000;stroke-width:2.4179;stroke-miterlimit:10;}
</style>
<g id="XMLID_1_">
	<linearGradient id="XMLID_144_" gradientUnits="userSpaceOnUse" x1="145.4295" y1="65.1599" x2="309.7746" y2="65.1599">
		<stop  offset="0" style="stop-color:#1B6094"/>
		<stop  offset="0.1472" style="stop-color:#00659B"/>
		<stop  offset="0.7178" style="stop-color:#9B2D6C"/>
		<stop  offset="1" style="stop-color:#2E2A6D"/>
	</linearGradient>
	<path id="XMLID_50_" class="st0" d="M309.7,73.6l-12.2-27.3c-0.2-0.4-0.5-0.7-0.9-0.7L271,41.9c-0.4,0-0.8,0.1-1.1,0.4
		c-0.3,0.3-0.4,0.8-0.2,1.2l8.2,24.8l-22.4,20l-28.4-15.1c-0.3-0.2-0.8-0.2-1.1,0l-31.9,15.4l-30.7-35.3c-0.1-0.1-0.1-0.1-0.2-0.2
		l-9.7-7.4l-5.9-6.1c-0.5-0.5-1.2-0.5-1.7,0c-0.5,0.5-0.5,1.2,0,1.7l6,6.2l9.8,7.4l31.3,35.9c0.2,0.3,0.6,0.4,0.9,0.4
		c0.2,0,0.4,0,0.5-0.1l32.1-15.5L255,90.8c0.2,0.1,0.4,0.2,0.7,0.1l45.9-2.5c0.4,0,0.8-0.3,1-0.6l7-13.1
		C309.8,74.3,309.8,73.9,309.7,73.6z M259,88.3l21-18.8c0.4-0.3,0.5-0.8,0.3-1.3l-7.8-23.7l22.9,3.3L307.2,74l-6.4,12L259,88.3z"/>
	<path id="XMLID_23_" class="st1" d="M279.9,66.5c1.3,0.7,1.7,2.2,1.1,3.5c-0.7,1.3-2.2,1.7-3.5,1.1c-1.3-0.7-1.7-2.2-1.1-3.5
		C277,66.3,278.6,65.8,279.9,66.5"/>
	<path id="XMLID_22_" class="st1" d="M273.5,40.4c2,1.1,2.8,3.6,1.7,5.6c-1.1,2-3.6,2.8-5.6,1.7c-2-1.1-2.8-3.6-1.7-5.6
		C269,40.1,271.5,39.3,273.5,40.4"/>
	<path id="XMLID_21_" class="st1" d="M298.7,44.5c1.8,1,2.5,3.2,1.5,5c-0.9,1.8-3.2,2.5-5,1.5c-1.8-1-2.5-3.2-1.5-5
		C294.6,44.2,296.9,43.5,298.7,44.5"/>
	<path id="XMLID_20_" class="st1" d="M309.3,72c1.3,0.7,1.7,2.2,1.1,3.5c-0.7,1.3-2.2,1.7-3.5,1.1c-1.3-0.7-1.7-2.2-1.1-3.5
		C306.5,71.9,308.1,71.4,309.3,72"/>
	<path id="XMLID_19_" class="st1" d="M302.6,84.7c1.3,0.7,1.7,2.2,1.1,3.5c-0.7,1.3-2.2,1.7-3.5,1.1c-1.3-0.7-1.7-2.2-1.1-3.5
		C299.7,84.5,301.3,84,302.6,84.7"/>
	<path id="XMLID_18_" class="st1" d="M258,84.9c2,1.1,2.8,3.6,1.7,5.6c-1.1,2-3.6,2.8-5.6,1.7c-2-1.1-2.8-3.6-1.7-5.6
		C253.5,84.5,256,83.8,258,84.9"/>
	<path id="XMLID_17_" class="st1" d="M227.7,72c1.3,0.7,1.7,2.2,1.1,3.5c-0.7,1.3-2.2,1.7-3.5,1.1c-1.3-0.7-1.7-2.2-1.1-3.5
		C224.9,71.9,226.5,71.4,227.7,72"/>
	<path id="XMLID_16_" class="st2" d="M195.5,86.8c1.5,0.8,2.1,2.7,1.3,4.2c-0.8,1.5-2.7,2.1-4.2,1.3c-1.5-0.8-2.1-2.7-1.3-4.2
		C192.1,86.6,194,86,195.5,86.8"/>
	<path id="XMLID_15_" class="st1" d="M163.7,51.4c1.3,0.7,1.7,2.2,1.1,3.5c-0.7,1.3-2.2,1.7-3.5,1.1c-1.3-0.7-1.7-2.2-1.1-3.5
		C160.8,51.2,162.4,50.7,163.7,51.4"/>
	<path id="XMLID_14_" class="st1" d="M154,44.6c1.3,0.7,1.7,2.2,1.1,3.5c-0.7,1.3-2.2,1.7-3.5,1.1c-1.3-0.7-1.7-2.2-1.1-3.5
		C151.2,44.4,152.8,43.9,154,44.6"/>
	<path id="XMLID_13_" class="st1" d="M147.9,37.5c1.3,0.7,1.7,2.2,1.1,3.5c-0.7,1.3-2.2,1.7-3.5,1.1c-1.3-0.7-1.7-2.2-1.1-3.5
		C145,37.4,146.6,36.9,147.9,37.5"/>
	<path id="XMLID_12_" d="M202.3,70c1,0.5,1.3,1.7,0.8,2.7c-0.5,1-1.7,1.3-2.7,0.8c-1-0.5-1.3-1.7-0.8-2.7
		C200.1,69.9,201.3,69.5,202.3,70"/>
	<path id="XMLID_11_" d="M155.5,67.5c1.6,0.9,2.2,2.9,1.4,4.5c-0.9,1.6-2.9,2.2-4.5,1.4c-1.6-0.9-2.2-2.9-1.4-4.5
		C151.9,67.3,153.9,66.7,155.5,67.5"/>
	<path id="XMLID_10_" d="M252,48.2c1.7,0.9,2.4,3.1,1.5,4.9c-0.9,1.7-3.1,2.4-4.8,1.5c-1.8-0.9-2.4-3.1-1.5-4.9
		C248.1,48,250.3,47.3,252,48.2"/>
	<path id="XMLID_9_" d="M316.7,79.2c1,0.5,1.3,1.7,0.8,2.7c-0.5,1-1.7,1.3-2.7,0.8c-1-0.5-1.3-1.7-0.8-2.7
		C314.5,79,315.7,78.7,316.7,79.2"/>
	<path id="XMLID_8_" d="M133,81.7c1,0.5,1.3,1.7,0.8,2.7c-0.5,1-1.7,1.3-2.7,0.8c-1-0.5-1.3-1.7-0.8-2.7
		C130.8,81.6,132,81.2,133,81.7"/>
	<path id="XMLID_7_" d="M179.7,35.5c1,0.5,1.3,1.7,0.8,2.7c-0.5,1-1.7,1.3-2.7,0.8c-1-0.5-1.3-1.7-0.8-2.7
		C177.5,35.3,178.7,35,179.7,35.5"/>
	<path id="XMLID_6_" d="M326.2,54.6c1,0.5,1.3,1.7,0.8,2.7c-0.5,1-1.7,1.3-2.7,0.8c-1-0.5-1.3-1.7-0.8-2.7
		C324.1,54.4,325.3,54.1,326.2,54.6"/>
</g>
<g id="XMLID_2_">
	<path id="XMLID_4_" d="M94.2,158.2c-5.1,1.5-10.4,2.3-16,2.3c-8.6,0-15.6-2.1-21.1-6.3c-5.4-4.2-8.2-9.7-8.2-16.5
		c0-7.4,2.9-13.4,8.8-17.9c5.9-4.5,13.4-6.7,22.5-6.7c4.8,0,9.5,0.6,13.9,1.7v3.4c-4.4-1.5-9.1-2.2-14-2.2c-7.9,0-14.3,2-19.3,5.9
		s-7.4,9.1-7.4,15.6c0,6.2,2.4,11.2,7.1,14.8c4.7,3.6,10.7,5.4,18,5.4c5.8,0,11-0.8,15.6-2.5V158.2z"/>
	<path id="XMLID_28_" d="M158.3,159.7l-7.2-14.3h-27.3l-7.2,14.3h-4.8l23.8-45.9h4.1l23.5,45.9H158.3z M138.9,121.3
		c-0.3-0.6-0.6-1.3-0.8-1.9c-0.2-0.5-0.4-1.1-0.7-1.6h-0.2c-0.5,1.4-1,2.5-1.5,3.4l-10.6,21.3h24.3L138.9,121.3z"/>
	<path id="XMLID_31_" d="M215.1,159.7l-8.4-13.4c-1.7-2.8-3.5-4.6-5.2-5.6c-1.7-0.9-3.9-1.4-6.5-1.4h-7.8v20.4h-4.4v-45.9h17.5
		c5.6,0,9.9,1.1,13.1,3.3c3.2,2.2,4.8,5.1,4.8,8.7c0,3.3-1.3,6.1-3.9,8.3c-2.6,2.2-6.3,3.6-10.9,4.3v0.1c2.5,0.7,4.9,2.9,7.3,6.6
		l9.4,14.6H215.1z M187.2,116.7v19.6H198c4.8,0,8.6-0.9,11.4-2.8c2.8-1.8,4.2-4.4,4.2-7.5c0-2.9-1.3-5.2-3.8-6.9
		c-2.5-1.7-6.2-2.5-10.9-2.5H187.2z"/>
	<path id="XMLID_34_" d="M241.8,159.7v-45.9h4.4v45.9H241.8z"/>
	<path id="XMLID_36_" d="M315.9,159.7l-37.5-37.1c-0.8-0.7-1.4-1.5-2-2.2l-0.6-0.6h-0.2c0.1,0.6,0.1,1.2,0.1,2v37.9h-4.4v-45.9h3.3
		l37.3,36.8c0.8,0.8,1.7,1.8,2.7,2.9h0.2c-0.1-1.5-0.2-2.8-0.2-3.8v-35.9h4.4v45.9H315.9z"/>
	<path id="XMLID_38_" d="M385.2,159.7l-7.2-14.3h-27.3l-7.2,14.3h-4.8l23.8-45.9h4.1l23.5,45.9H385.2z M365.8,121.3
		c-0.3-0.6-0.6-1.3-0.8-1.9c-0.2-0.5-0.4-1.1-0.7-1.6h-0.2c-0.5,1.4-1,2.5-1.5,3.4l-10.6,21.3h24.3L365.8,121.3z"/>
</g>
</svg>
