<?xml version="1.0" encoding="utf-8"?>
<!-- Generator: Adobe Illustrator 19.0.0, SVG Export Plug-In . SVG Version: 6.00 Build 0)  -->
<svg version="1.1" id="Calque_1" xmlns="http://www.w3.org/2000/svg" xmlns:xlink="http://www.w3.org/1999/xlink" x="0px" y="0px"
	 viewBox="-384.4 397.6 6.8 6.8" style="enable-background:new -384.4 397.6 6.8 6.8;" xml:space="preserve">
<style type="text/css">
	.st0{fill:#818181;}
	.st1{fill:none;}
</style>
<path class="st0" d="M-381,399.1c-1.1,0-1.9,0.9-1.9,1.9s0.9,1.9,1.9,1.9s1.9-0.9,1.9-1.9S-379.9,399.1-381,399.1z M-381,399.6
	c0.3,0,0.6,0.3,0.6,0.6s-0.3,0.6-0.6,0.6s-0.6-0.3-0.6-0.6S-381.3,399.6-381,399.6z M-381,402.4c-0.5,0-0.9-0.2-1.2-0.6
	c0-0.4,0.8-0.6,1.2-0.6c0.4,0,1.2,0.2,1.2,0.6C-380.1,402.1-380.5,402.4-381,402.4z"/>
<path class="st1" d="M-386.7,395.3h11.5v11.5h-11.5V395.3z"/>
</svg>
